<svg width="109" height="19" viewBox="0 0 109 19" fill="none" xmlns="http://www.w3.org/2000/svg">
<path d="M16.94 19H12.494L5.058 7.742V19H0.612V0.747999H5.058L12.494 12.058V0.747999H16.94V19ZM32.0448 0.747999V4.31H24.6088V8.158H30.1728V11.616H24.6088V19H20.1628V0.747999H32.0448ZM47.5115 0.747999V4.31H42.6755V19H38.2295V4.31H33.3935V0.747999H47.5115Z" fill="white"/>
<path d="M70.4129 0.747999V19H65.9669V8.054L61.8849 19H58.2969L54.1889 8.028V19H49.7429V0.747999H54.9949L60.1169 13.384L65.1869 0.747999H70.4129ZM84.972 15.776H78.16L77.068 19H72.414L79.018 0.747999H84.166L90.77 19H86.064L84.972 15.776ZM83.828 12.344L81.566 5.662L79.33 12.344H83.828ZM103.362 19L97.226 10.94V19H92.78V0.747999H97.226V8.756L103.31 0.747999H108.536L101.464 9.692L108.796 19H103.362Z" fill="#6345ED"/>
</svg>
